<?xml version="1.0" encoding="UTF-8"?>
<svg xmlns="http://www.w3.org/2000/svg" xmlns:xlink="http://www.w3.org/1999/xlink" width="16px" height="16px" viewBox="0 0 16 16" version="1.1">
<g id="surface1">
<path style=" stroke:none;fill-rule:nonzero;fill:rgb(89.411765%,68.627451%,9.411765%);fill-opacity:1;" d="M 8.894531 15.898438 L 7.367188 15.898438 C 4.03125 15.898438 1.324219 12.363281 1.324219 8 C 1.324219 3.636719 4.03125 0.101562 7.367188 0.101562 L 8.632812 0.101562 Z M 8.894531 15.898438 "/>
<path style=" stroke:none;fill-rule:nonzero;fill:rgb(76.862745%,57.254902%,7.843137%);fill-opacity:1;" d="M 7.921875 0.355469 L 5.867188 0.355469 C 5.515625 0.472656 5.179688 0.625 4.859375 0.816406 L 6.929688 0.816406 C 7.246094 0.628906 7.578125 0.46875 7.921875 0.355469 Z M 7.921875 0.355469 "/>
<path style=" stroke:none;fill-rule:nonzero;fill:rgb(76.862745%,57.254902%,7.843137%);fill-opacity:1;" d="M 5.914062 1.585938 L 3.84375 1.585938 C 3.671875 1.746094 3.507812 1.917969 3.351562 2.101562 L 5.421875 2.101562 C 5.578125 1.917969 5.742188 1.746094 5.914062 1.585938 Z M 5.914062 1.585938 "/>
<path style=" stroke:none;fill-rule:nonzero;fill:rgb(76.862745%,57.254902%,7.843137%);fill-opacity:1;" d="M 4.683594 3.125 L 2.613281 3.125 C 2.515625 3.292969 2.417969 3.460938 2.328125 3.640625 L 4.402344 3.640625 C 4.488281 3.460938 4.585938 3.292969 4.683594 3.125 Z M 4.683594 3.125 "/>
<path style=" stroke:none;fill-rule:nonzero;fill:rgb(76.862745%,57.254902%,7.843137%);fill-opacity:1;" d="M 3.960938 4.664062 L 1.890625 4.664062 C 1.828125 4.832031 1.773438 5.003906 1.722656 5.179688 L 3.792969 5.179688 C 3.84375 5.003906 3.898438 4.832031 3.960938 4.664062 Z M 3.960938 4.664062 "/>
<path style=" stroke:none;fill-rule:nonzero;fill:rgb(76.862745%,57.254902%,7.843137%);fill-opacity:1;" d="M 3.554688 6.203125 L 1.484375 6.203125 C 1.453125 6.375 1.425781 6.542969 1.40625 6.71875 L 3.476562 6.71875 C 3.496094 6.542969 3.523438 6.375 3.554688 6.203125 Z M 3.554688 6.203125 "/>
<path style=" stroke:none;fill-rule:nonzero;fill:rgb(76.862745%,57.254902%,7.843137%);fill-opacity:1;" d="M 3.394531 8 C 3.394531 7.914062 3.398438 7.828125 3.398438 7.742188 L 1.328125 7.742188 C 1.328125 7.828125 1.324219 7.914062 1.324219 8 C 1.324219 8.085938 1.328125 8.171875 1.328125 8.257812 L 3.398438 8.257812 C 3.398438 8.171875 3.394531 8.085938 3.394531 8 Z M 3.394531 8 "/>
<path style=" stroke:none;fill-rule:nonzero;fill:rgb(76.862745%,57.254902%,7.843137%);fill-opacity:1;" d="M 3.476562 9.28125 L 1.40625 9.28125 C 1.425781 9.457031 1.453125 9.625 1.484375 9.796875 L 3.554688 9.796875 C 3.523438 9.625 3.496094 9.457031 3.476562 9.28125 Z M 3.476562 9.28125 "/>
<path style=" stroke:none;fill-rule:nonzero;fill:rgb(76.862745%,57.254902%,7.843137%);fill-opacity:1;" d="M 3.792969 10.820312 L 1.722656 10.820312 C 1.773438 10.996094 1.828125 11.167969 1.890625 11.335938 L 3.960938 11.335938 C 3.898438 11.167969 3.84375 10.996094 3.792969 10.820312 Z M 3.792969 10.820312 "/>
<path style=" stroke:none;fill-rule:nonzero;fill:rgb(76.862745%,57.254902%,7.843137%);fill-opacity:1;" d="M 4.402344 12.359375 L 2.328125 12.359375 C 2.417969 12.539062 2.515625 12.707031 2.613281 12.875 L 4.683594 12.875 C 4.585938 12.707031 4.488281 12.539062 4.402344 12.359375 Z M 4.402344 12.359375 "/>
<path style=" stroke:none;fill-rule:nonzero;fill:rgb(76.862745%,57.254902%,7.843137%);fill-opacity:1;" d="M 5.421875 13.898438 L 3.351562 13.898438 C 3.507812 14.082031 3.671875 14.253906 3.84375 14.414062 L 5.914062 14.414062 C 5.742188 14.253906 5.578125 14.082031 5.421875 13.898438 Z M 5.421875 13.898438 "/>
<path style=" stroke:none;fill-rule:nonzero;fill:rgb(76.862745%,57.254902%,7.843137%);fill-opacity:1;" d="M 6.816406 15.117188 L 4.859375 15.183594 C 5.183594 15.378906 5.523438 15.53125 5.878906 15.648438 L 7.933594 15.648438 C 7.546875 15.519531 7.171875 15.339844 6.816406 15.117188 Z M 6.816406 15.117188 "/>
<path style=" stroke:none;fill-rule:nonzero;fill:rgb(100%,85.098039%,28.627451%);fill-opacity:1;" d="M 14.675781 8 C 14.675781 3.636719 11.96875 0.101562 8.632812 0.101562 C 5.292969 0.101562 2.585938 3.636719 2.585938 8 C 2.585938 12.363281 5.292969 15.898438 8.632812 15.898438 C 11.96875 15.898438 14.675781 12.363281 14.675781 8 Z M 14.675781 8 "/>
<path style=" stroke:none;fill-rule:nonzero;fill:rgb(89.411765%,68.627451%,9.411765%);fill-opacity:1;" d="M 13.332031 8 C 13.332031 4.609375 11.226562 1.859375 8.628906 1.859375 C 6.035156 1.859375 3.929688 4.609375 3.929688 8 C 3.929688 11.390625 6.035156 14.140625 8.628906 14.140625 C 11.226562 14.140625 13.332031 11.390625 13.332031 8 Z M 13.332031 8 "/>
<path style=" stroke:none;fill-rule:nonzero;fill:rgb(100%,85.098039%,28.627451%);fill-opacity:1;" d="M 11.246094 9.449219 C 11.234375 8.273438 10.328125 7.417969 9.234375 7.546875 L 8.4375 7.640625 C 7.808594 7.714844 7.289062 7.222656 7.28125 6.546875 C 7.273438 5.871094 7.78125 5.257812 8.410156 5.183594 L 9.96875 5.003906 C 10.203125 4.976562 10.390625 4.75 10.390625 4.5 C 10.386719 4.25 10.195312 4.066406 9.960938 4.09375 L 9.222656 4.179688 L 9.214844 3.480469 C 9.210938 3.230469 9.019531 3.050781 8.785156 3.078125 C 8.554688 3.105469 8.367188 3.328125 8.367188 3.582031 L 8.375 4.28125 C 7.289062 4.421875 6.421875 5.476562 6.433594 6.644531 C 6.449219 7.824219 7.351562 8.675781 8.449219 8.546875 L 9.242188 8.457031 C 9.875 8.382812 10.390625 8.871094 10.398438 9.550781 C 10.40625 10.226562 9.898438 10.835938 9.269531 10.910156 L 7.710938 11.09375 C 7.476562 11.117188 7.289062 11.34375 7.292969 11.59375 C 7.292969 11.847656 7.484375 12.027344 7.71875 12 L 8.457031 11.914062 L 8.464844 12.609375 C 8.46875 12.863281 8.660156 13.042969 8.894531 13.015625 C 9.128906 12.988281 9.316406 12.761719 9.3125 12.511719 L 9.304688 11.8125 C 10.390625 11.671875 11.257812 10.621094 11.246094 9.449219 Z M 11.246094 9.449219 "/>
</g>
</svg>
